<?xml version="1.0" encoding="utf-8"?>
<!-- Generator: Adobe Illustrator 23.0.0, SVG Export Plug-In . SVG Version: 6.00 Build 0)  -->
<svg version="1.1" id="Слой_1" xmlns="http://www.w3.org/2000/svg" xmlns:xlink="http://www.w3.org/1999/xlink" x="0px" y="0px"
	 viewBox="0 0 500 500" style="enable-background:new 0 0 500 500;" xml:space="preserve">
<g>
	<path d="M338,191.4H143.2c-13.1,0-23.7-10.6-23.7-23.7l0,0c0-13.1,10.6-23.7,23.7-23.7H338c13.1,0,23.7,10.6,23.7,23.7l0,0
		C361.7,180.8,351.1,191.4,338,191.4z"/>
	<path d="M338,274.5H143.2c-13.1,0-23.7-10.6-23.7-23.7l0,0c0-13.1,10.6-23.7,23.7-23.7H338c13.1,0,23.7,10.6,23.7,23.7l0,0
		C361.7,263.8,351.1,274.5,338,274.5z"/>
	<path d="M277.5,356H143.2c-13.1,0-23.7-10.6-23.7-23.7l0,0c0-13.1,10.6-23.7,23.7-23.7h134.3c13.1,0,23.7,10.6,23.7,23.7l0,0
		C301.2,345.4,290.6,356,277.5,356z"/>
	<g>
		<path d="M370.6,335.7h-40.4c-5.5,0-9.9-4.5-9.9-10l0,0c0-5.5,4.5-10,9.9-10h40.4c5.5,0,9.9,4.5,9.9,10l0,0
			C380.5,331.3,376,335.7,370.6,335.7z"/>
		<path d="M360.3,306.5V345c0,5.5-4.5,10-9.9,10l0,0c-5.5,0-9.9-4.5-9.9-10v-38.5c0-5.5,4.5-10,9.9-10l0,0
			C355.8,296.6,360.3,301,360.3,306.5z"/>
	</g>
</g>
</svg>
