<?xml version="1.0" encoding="utf-8"?>
<!-- Generator: Adobe Illustrator 23.0.0, SVG Export Plug-In . SVG Version: 6.00 Build 0)  -->
<svg version="1.1" id="Слой_1" xmlns="http://www.w3.org/2000/svg" xmlns:xlink="http://www.w3.org/1999/xlink" x="0px" y="0px"
	 viewBox="0 0 500 500" style="enable-background:new 0 0 500 500;" xml:space="preserve">
<g>
	<path d="M341.8,191.4H143.6c-13.3,0-24.1-10.6-24.1-23.7l0,0c0-13.1,10.8-23.7,24.1-23.7h198.2c13.3,0,24.1,10.6,24.1,23.7l0,0
		C365.9,180.8,355.1,191.4,341.8,191.4z"/>
	<path d="M341.8,274.5H143.6c-13.3,0-24.1-10.6-24.1-23.7l0,0c0-13.1,10.8-23.7,24.1-23.7h198.2c13.3,0,24.1,10.6,24.1,23.7l0,0
		C365.9,263.8,355.1,274.5,341.8,274.5z"/>
	<path d="M280.3,356H143.6c-13.3,0-24.1-10.6-24.1-23.7l0,0c0-13.1,10.8-23.7,24.1-23.7h136.7c13.3,0,24.1,10.6,24.1,23.7l0,0
		C304.4,345.4,293.6,356,280.3,356z"/>
	<polygon points="323.7,301 323.7,356 380.5,328 	"/>
</g>
</svg>
