<?xml version="1.0" encoding="utf-8"?>
<!-- Generator: Adobe Illustrator 23.0.0, SVG Export Plug-In . SVG Version: 6.00 Build 0)  -->
<svg version="1.1" id="Слой_1" xmlns="http://www.w3.org/2000/svg" xmlns:xlink="http://www.w3.org/1999/xlink" x="0px" y="0px"
	 viewBox="0 0 500 500" style="enable-background:new 0 0 500 500;" xml:space="preserve">
<style type="text/css">
	.st0{fill:#1D1D1B;}
</style>
<g>
	<g>
		<path class="st0" d="M334.355,313.994H127.807c-19.5,0-35.307-15.808-35.307-35.307v-57.374c0-19.5,15.808-35.307,35.307-35.307
			h85.62h120.927V313.994z"/>
		<path class="st0" d="M292.522,119.21l-121.564,66.796V250h163.397V128.213C334.355,116.578,307.738,110.849,292.522,119.21z"/>
		<path class="st0" d="M292.522,380.79l-121.564-66.796V250h163.397v121.787C334.355,383.422,307.738,389.151,292.522,380.79z"/>
	</g>
	<path class="st0" d="M395.852,250H407.5c-0.34-28.624-21.255-55.652-52.244-68.328c-0.433,2.932-0.851,7.629,0,13.196
		C359.932,225.46,395.009,230.661,395.852,250z"/>
	<path class="st0" d="M395.852,250H407.5c-0.34,28.624-21.255,55.652-52.244,68.328c-0.433-2.932-0.851-7.629,0-13.196
		C359.932,274.54,395.009,269.339,395.852,250z"/>
	<path class="st0" d="M395.852,250H407.5c-0.34-28.624-21.255-55.652-52.244-68.328c-0.433,2.932-0.851,7.629,0,13.196
		C359.932,225.46,395.009,230.661,395.852,250z"/>
	<path class="st0" d="M395.852,250H407.5c-0.34,28.624-21.255,55.652-52.244,68.328c-0.433-2.932-0.851-7.629,0-13.196
		C359.932,274.54,395.009,269.339,395.852,250z"/>
</g>
</svg>
