<?xml version="1.0" encoding="utf-8"?>
<!-- Generator: Adobe Illustrator 23.0.0, SVG Export Plug-In . SVG Version: 6.00 Build 0)  -->
<svg version="1.1" id="Слой_1" xmlns="http://www.w3.org/2000/svg" xmlns:xlink="http://www.w3.org/1999/xlink" x="0px" y="0px"
	 viewBox="0 0 500 500" style="enable-background:new 0 0 500 500;" xml:space="preserve">
<style type="text/css">
	.st0{fill:#F2F2F2;}
</style>
<g>
	<path class="st0" d="M337.856,200.489H178.794c-10.682,0-19.341-8.659-19.341-19.341l0,0c0-10.682,8.659-19.341,19.341-19.341
		h159.062c10.682,0,19.341,8.659,19.341,19.341l0,0C357.197,191.829,348.538,200.489,337.856,200.489z"/>
	<path class="st0" d="M337.856,268.328H178.794c-10.682,0-19.341-8.659-19.341-19.341l0,0c0-10.682,8.659-19.341,19.341-19.341
		h159.062c10.682,0,19.341,8.659,19.341,19.341l0,0C357.197,259.668,348.538,268.328,337.856,268.328z"/>
	<path class="st0" d="M288.492,334.916H178.794c-10.682,0-19.341-8.659-19.341-19.341l0,0c0-10.682,8.659-19.341,19.341-19.341
		h109.698c10.682,0,19.341,8.659,19.341,19.341l0,0C307.833,326.257,299.174,334.916,288.492,334.916z"/>
	<g>
		<path class="st0" d="M364.458,318.361h-33.007c-4.487,0-8.125-3.638-8.125-8.125l0,0c0-4.487,3.638-8.125,8.125-8.125h33.007
			c4.487,0,8.125,3.638,8.125,8.125l0,0C372.583,314.724,368.945,318.361,364.458,318.361z"/>
		<path class="st0" d="M356.08,294.511v31.451c0,4.487-3.638,8.125-8.125,8.125l0,0c-4.487,0-8.125-3.638-8.125-8.125v-31.451
			c0-4.487,3.638-8.125,8.125-8.125l0,0C352.442,286.386,356.08,290.023,356.08,294.511z"/>
	</g>
</g>
</svg>
