<?xml version="1.0" encoding="utf-8"?>
<!-- Generator: Adobe Illustrator 23.0.0, SVG Export Plug-In . SVG Version: 6.00 Build 0)  -->
<svg version="1.1" id="Слой_1" xmlns="http://www.w3.org/2000/svg" xmlns:xlink="http://www.w3.org/1999/xlink" x="0px" y="0px"
	 viewBox="0 0 500 500" style="enable-background:new 0 0 500 500;" xml:space="preserve">
<style type="text/css">
	.st0{fill:#F2F2F2;}
</style>
<g>
	<g>
		<path class="st0" d="M250,377.856c-52.313-50.561-87.594-83.685-108.374-101.718c-1.866-1.62-6.71-5.803-11.507-12.672
			c-10.829-15.509-19.983-42.652-9.476-70.394c10.03-26.483,35.273-46.379,64.979-48.058c38.253-2.161,61.601,27.149,63.626,29.782
			c8.192,8.89,17.817,21.005,26.535,36.617c10.832,19.4,16.478,37.418,19.565,50.87"/>
		<path class="st0" d="M250,377.856c52.313-50.561,87.594-83.685,108.374-101.718c1.866-1.62,6.71-5.803,11.507-12.672
			c10.829-15.509,19.983-42.652,9.476-70.394c-10.149-26.796-35.622-46.188-64.979-48.058c-39.58-2.521-63.449,28.249-65.204,30.595
			"/>
	</g>
	<polygon class="st0" points="249.999,384.435 364.304,270.415 135.696,270.415 	"/>
</g>
</svg>
