<?xml version="1.0" encoding="utf-8"?>
<!-- Generator: Adobe Illustrator 23.0.0, SVG Export Plug-In . SVG Version: 6.00 Build 0)  -->
<svg version="1.1" id="Слой_1" xmlns="http://www.w3.org/2000/svg" xmlns:xlink="http://www.w3.org/1999/xlink" x="0px" y="0px"
	 viewBox="0 0 500 500" style="enable-background:new 0 0 500 500;" xml:space="preserve">
<path d="M250,200.6v177.2L104.9,241.4c-4.1-5.1-19.3-25.3-15.8-52.4c5.4-42.2,50.1-59.9,51.9-60.6c26.5-10,65.1-9.8,89.7,14.1
	C254.3,165.3,250.7,195.8,250,200.6z"/>
<path d="M250,200.6v177.2l145.1-136.5c4.1-5.1,19.3-25.3,15.8-52.4c-5.4-42.2-50.1-59.9-51.9-60.6c-26.5-10-65.1-9.8-89.7,14.1
	C245.7,165.3,249.3,195.8,250,200.6z"/>
<path d="M250,200.6v177.2L104.9,241.4c-4.1-5.1-19.3-25.3-15.8-52.4c5.4-42.2,50.1-59.9,51.9-60.6c26.5-10,65.1-9.8,89.7,14.1
	C254.3,165.3,250.7,195.8,250,200.6z"/>
<path d="M250,200.6v177.2l145.1-136.5c4.1-5.1,19.3-25.3,15.8-52.4c-5.4-42.2-50.1-59.9-51.9-60.6c-26.5-10-65.1-9.8-89.7,14.1
	C245.7,165.3,249.3,195.8,250,200.6z"/>
<path d="M250,200.6v177.2L104.9,241.4c-4.1-5.1-19.3-25.3-15.8-52.4c5.4-42.2,50.1-59.9,51.9-60.6c26.5-10,65.1-9.8,89.7,14.1
	C254.3,165.3,250.7,195.8,250,200.6z"/>
<path d="M250,200.6v177.2l145.1-136.5c4.1-5.1,19.3-25.3,15.8-52.4c-5.4-42.2-50.1-59.9-51.9-60.6c-26.5-10-65.1-9.8-89.7,14.1
	C245.7,165.3,249.3,195.8,250,200.6z"/>
<path d="M250,200.6v177.2L104.9,241.4c-4.1-5.1-19.3-25.3-15.8-52.4c5.4-42.2,50.1-59.9,51.9-60.6c26.5-10,65.1-9.8,89.7,14.1
	C254.3,165.3,250.7,195.8,250,200.6z"/>
<path d="M250,200.6v177.2l145.1-136.5c4.1-5.1,19.3-25.3,15.8-52.4c-5.4-42.2-50.1-59.9-51.9-60.6c-26.5-10-65.1-9.8-89.7,14.1
	C245.7,165.3,249.3,195.8,250,200.6z"/>
</svg>
