<?xml version="1.0" encoding="utf-8"?>
<!-- Generator: Adobe Illustrator 23.0.0, SVG Export Plug-In . SVG Version: 6.00 Build 0)  -->
<svg version="1.1" id="Слой_1" xmlns="http://www.w3.org/2000/svg" xmlns:xlink="http://www.w3.org/1999/xlink" x="0px" y="0px"
	 viewBox="0 0 500 500" style="enable-background:new 0 0 500 500;" xml:space="preserve">
<g>
	<path d="M337.856,200.489H178.794c-10.682,0-19.341-8.659-19.341-19.341v0c0-10.682,8.659-19.341,19.341-19.341h159.062
		c10.682,0,19.341,8.659,19.341,19.341v0C357.197,191.829,348.538,200.489,337.856,200.489z"/>
	<path d="M337.856,268.328H178.794c-10.682,0-19.341-8.659-19.341-19.341v0c0-10.682,8.659-19.341,19.341-19.341h159.062
		c10.682,0,19.341,8.659,19.341,19.341v0C357.197,259.668,348.538,268.328,337.856,268.328z"/>
	<path d="M337.856,334.916H178.794c-10.682,0-19.341-8.659-19.341-19.341v0c0-10.682,8.659-19.341,19.341-19.341h159.062
		c10.682,0,19.341,8.659,19.341,19.341v0C357.197,326.257,348.538,334.916,337.856,334.916z"/>
</g>
</svg>
